<svg width="130" height="45" viewBox="0 0 130 45" fill="none" xmlns="http://www.w3.org/2000/svg">
<path d="M36.3589 6.71732L38.9787 14.7802H47.4565L40.5978 19.7633L43.2176 27.8262L36.3589 22.843L29.5002 27.8262L32.12 19.7633L25.2613 14.7802H33.7391L36.3589 6.71732Z" fill="#C800C8"/>
<path d="M64.9997 0.352783L67.6195 8.41564H76.0973L69.2386 13.3988L71.8584 21.4616L64.9997 16.4785L58.1411 21.4616L60.7608 13.3988L53.9022 8.41564H62.38L64.9997 0.352783Z" fill="#C800C8"/>
<path d="M94.7019 6.71729L97.3217 14.7801H105.799L98.9408 19.7633L101.561 27.8261L94.7019 22.843L87.8432 27.8261L90.463 19.7633L83.6043 14.7801H92.0821L94.7019 6.71729Z" fill="#C800C8"/>
<path d="M11.9607 21.5686L14.5805 29.6315H23.0582L16.1996 34.6146L18.8193 42.6774L11.9607 37.6943L5.10199 42.6774L7.72178 34.6146L0.863098 29.6315H9.34089L11.9607 21.5686Z" fill="#C800C8"/>
<path d="M118.04 21.5686L120.659 29.6315H129.137L122.279 34.6146L124.898 42.6774L118.04 37.6943L111.181 42.6774L113.801 34.6146L106.942 29.6315H115.42L118.04 21.5686Z" fill="#C800C8"/>
</svg>
